<mxfile host="app.diagrams.net" modified="2023-10-12T17:48:37.259Z" agent="Mozilla/5.0 (Windows NT 10.0; Win64; x64) AppleWebKit/537.36 (KHTML, like Gecko) Chrome/116.0.0.0 Safari/537.36" etag="TRG-WkVblL4fDonX3eKP" version="22.0.4" type="github">
  <diagram name="Страница — 1" id="HMX5MtgO46n08s3P04wy">
    <mxGraphModel dx="2442" dy="2052" grid="1" gridSize="10" guides="1" tooltips="1" connect="1" arrows="1" fold="1" page="1" pageScale="1" pageWidth="827" pageHeight="1169" math="0" shadow="0">
      <root>
        <mxCell id="0" />
        <mxCell id="1" parent="0" />
        <mxCell id="sdRk0HJzaNoqGaPp4npa-1" value="" style="verticalLabelPosition=bottom;verticalAlign=top;html=1;shape=mxgraph.flowchart.summing_function;" parent="1" vertex="1">
          <mxGeometry x="-240" y="940" width="40" height="40" as="geometry" />
        </mxCell>
        <mxCell id="sdRk0HJzaNoqGaPp4npa-2" value="" style="verticalLabelPosition=bottom;verticalAlign=top;html=1;shape=mxgraph.flowchart.or;" parent="1" vertex="1">
          <mxGeometry x="-540" y="940" width="40" height="40" as="geometry" />
        </mxCell>
        <mxCell id="sdRk0HJzaNoqGaPp4npa-3" value="" style="verticalLabelPosition=middle;verticalAlign=middle;html=1;shape=trapezoid;perimeter=trapezoidPerimeter;whiteSpace=wrap;size=0.23;arcSize=10;flipV=1;labelPosition=center;align=center;rotation=-90;" parent="1" vertex="1">
          <mxGeometry x="-680" y="945" width="100" height="30" as="geometry" />
        </mxCell>
        <mxCell id="sdRk0HJzaNoqGaPp4npa-5" value="" style="rounded=0;whiteSpace=wrap;html=1;" parent="1" vertex="1">
          <mxGeometry x="-440" y="920" width="80" height="120" as="geometry" />
        </mxCell>
        <mxCell id="sdRk0HJzaNoqGaPp4npa-6" style="edgeStyle=orthogonalEdgeStyle;rounded=0;orthogonalLoop=1;jettySize=auto;html=1;exitX=1;exitY=0.5;exitDx=0;exitDy=0;exitPerimeter=0;entryX=-0.01;entryY=0.335;entryDx=0;entryDy=0;entryPerimeter=0;endArrow=none;endFill=0;" parent="1" source="sdRk0HJzaNoqGaPp4npa-2" target="sdRk0HJzaNoqGaPp4npa-5" edge="1">
          <mxGeometry relative="1" as="geometry" />
        </mxCell>
        <mxCell id="sdRk0HJzaNoqGaPp4npa-7" style="edgeStyle=orthogonalEdgeStyle;rounded=0;orthogonalLoop=1;jettySize=auto;html=1;exitX=0.5;exitY=1;exitDx=0;exitDy=0;entryX=0;entryY=0.5;entryDx=0;entryDy=0;entryPerimeter=0;startArrow=none;startFill=0;endArrow=none;endFill=0;" parent="1" source="sdRk0HJzaNoqGaPp4npa-3" target="sdRk0HJzaNoqGaPp4npa-2" edge="1">
          <mxGeometry relative="1" as="geometry" />
        </mxCell>
        <mxCell id="sdRk0HJzaNoqGaPp4npa-9" value="" style="endArrow=none;html=1;rounded=0;" parent="1" edge="1">
          <mxGeometry width="50" height="50" relative="1" as="geometry">
            <mxPoint x="-680" y="880" as="sourcePoint" />
            <mxPoint x="-320" y="880" as="targetPoint" />
          </mxGeometry>
        </mxCell>
        <mxCell id="sdRk0HJzaNoqGaPp4npa-10" value="" style="endArrow=none;html=1;rounded=0;" parent="1" edge="1">
          <mxGeometry width="50" height="50" relative="1" as="geometry">
            <mxPoint x="-680" y="880" as="sourcePoint" />
            <mxPoint x="-680" y="940" as="targetPoint" />
          </mxGeometry>
        </mxCell>
        <mxCell id="sdRk0HJzaNoqGaPp4npa-12" value="" style="endArrow=none;html=1;rounded=0;entryX=0.75;entryY=0;entryDx=0;entryDy=0;" parent="1" edge="1">
          <mxGeometry width="50" height="50" relative="1" as="geometry">
            <mxPoint x="-680" y="940" as="sourcePoint" />
            <mxPoint x="-645" y="940" as="targetPoint" />
          </mxGeometry>
        </mxCell>
        <mxCell id="sdRk0HJzaNoqGaPp4npa-13" value="" style="endArrow=none;html=1;rounded=0;" parent="1" edge="1">
          <mxGeometry width="50" height="50" relative="1" as="geometry">
            <mxPoint x="-320" y="880" as="sourcePoint" />
            <mxPoint x="-320" y="960" as="targetPoint" />
          </mxGeometry>
        </mxCell>
        <mxCell id="sdRk0HJzaNoqGaPp4npa-15" style="edgeStyle=orthogonalEdgeStyle;rounded=0;orthogonalLoop=1;jettySize=auto;html=1;exitX=0.5;exitY=1;exitDx=0;exitDy=0;entryX=0;entryY=0.5;entryDx=0;entryDy=0;entryPerimeter=0;startArrow=none;startFill=0;endArrow=none;endFill=0;" parent="1" edge="1">
          <mxGeometry relative="1" as="geometry">
            <mxPoint x="-720" y="980" as="sourcePoint" />
            <mxPoint x="-645" y="980" as="targetPoint" />
          </mxGeometry>
        </mxCell>
        <mxCell id="sdRk0HJzaNoqGaPp4npa-16" value="" style="endArrow=classic;html=1;rounded=0;entryX=0.5;entryY=0;entryDx=0;entryDy=0;entryPerimeter=0;" parent="1" target="sdRk0HJzaNoqGaPp4npa-2" edge="1">
          <mxGeometry width="50" height="50" relative="1" as="geometry">
            <mxPoint x="-520" y="910" as="sourcePoint" />
            <mxPoint x="-370" y="910" as="targetPoint" />
          </mxGeometry>
        </mxCell>
        <mxCell id="sdRk0HJzaNoqGaPp4npa-18" value="a0" style="text;strokeColor=none;fillColor=none;html=1;fontSize=14;fontStyle=1;verticalAlign=middle;align=center;" parent="1" vertex="1">
          <mxGeometry x="-545" y="880" width="50" height="30" as="geometry" />
        </mxCell>
        <mxCell id="sdRk0HJzaNoqGaPp4npa-20" value="" style="endArrow=none;html=1;rounded=0;exitX=1.001;exitY=0.332;exitDx=0;exitDy=0;exitPerimeter=0;" parent="1" source="sdRk0HJzaNoqGaPp4npa-5" edge="1">
          <mxGeometry width="50" height="50" relative="1" as="geometry">
            <mxPoint x="-330" y="990" as="sourcePoint" />
            <mxPoint x="-320" y="960" as="targetPoint" />
          </mxGeometry>
        </mxCell>
        <mxCell id="sdRk0HJzaNoqGaPp4npa-21" value="" style="endArrow=none;html=1;rounded=0;exitX=1.001;exitY=0.332;exitDx=0;exitDy=0;exitPerimeter=0;" parent="1" edge="1">
          <mxGeometry width="50" height="50" relative="1" as="geometry">
            <mxPoint x="-320" y="959.9" as="sourcePoint" />
            <mxPoint x="-240" y="960" as="targetPoint" />
          </mxGeometry>
        </mxCell>
        <mxCell id="sdRk0HJzaNoqGaPp4npa-22" value="gO0" style="text;strokeColor=none;fillColor=none;html=1;fontSize=14;fontStyle=1;verticalAlign=middle;align=center;" parent="1" vertex="1">
          <mxGeometry x="-770" y="965" width="50" height="30" as="geometry" />
        </mxCell>
        <mxCell id="sdRk0HJzaNoqGaPp4npa-23" value="" style="verticalLabelPosition=bottom;verticalAlign=top;html=1;shape=mxgraph.flowchart.or;" parent="1" vertex="1">
          <mxGeometry x="-540" y="1140" width="40" height="40" as="geometry" />
        </mxCell>
        <mxCell id="sdRk0HJzaNoqGaPp4npa-24" value="" style="verticalLabelPosition=middle;verticalAlign=middle;html=1;shape=trapezoid;perimeter=trapezoidPerimeter;whiteSpace=wrap;size=0.23;arcSize=10;flipV=1;labelPosition=center;align=center;rotation=-90;" parent="1" vertex="1">
          <mxGeometry x="-680" y="1145" width="100" height="30" as="geometry" />
        </mxCell>
        <mxCell id="sdRk0HJzaNoqGaPp4npa-25" value="" style="rounded=0;whiteSpace=wrap;html=1;" parent="1" vertex="1">
          <mxGeometry x="-440" y="1120" width="80" height="120" as="geometry" />
        </mxCell>
        <mxCell id="sdRk0HJzaNoqGaPp4npa-26" style="edgeStyle=orthogonalEdgeStyle;rounded=0;orthogonalLoop=1;jettySize=auto;html=1;exitX=1;exitY=0.5;exitDx=0;exitDy=0;exitPerimeter=0;entryX=-0.01;entryY=0.335;entryDx=0;entryDy=0;entryPerimeter=0;endArrow=none;endFill=0;" parent="1" source="sdRk0HJzaNoqGaPp4npa-23" target="sdRk0HJzaNoqGaPp4npa-25" edge="1">
          <mxGeometry relative="1" as="geometry" />
        </mxCell>
        <mxCell id="sdRk0HJzaNoqGaPp4npa-27" style="edgeStyle=orthogonalEdgeStyle;rounded=0;orthogonalLoop=1;jettySize=auto;html=1;exitX=0.5;exitY=1;exitDx=0;exitDy=0;entryX=0;entryY=0.5;entryDx=0;entryDy=0;entryPerimeter=0;startArrow=none;startFill=0;endArrow=none;endFill=0;" parent="1" source="sdRk0HJzaNoqGaPp4npa-24" target="sdRk0HJzaNoqGaPp4npa-23" edge="1">
          <mxGeometry relative="1" as="geometry" />
        </mxCell>
        <mxCell id="sdRk0HJzaNoqGaPp4npa-28" value="" style="endArrow=none;html=1;rounded=0;" parent="1" edge="1">
          <mxGeometry width="50" height="50" relative="1" as="geometry">
            <mxPoint x="-680" y="1080" as="sourcePoint" />
            <mxPoint x="-320" y="1080" as="targetPoint" />
          </mxGeometry>
        </mxCell>
        <mxCell id="sdRk0HJzaNoqGaPp4npa-29" value="" style="endArrow=none;html=1;rounded=0;" parent="1" edge="1">
          <mxGeometry width="50" height="50" relative="1" as="geometry">
            <mxPoint x="-680" y="1080" as="sourcePoint" />
            <mxPoint x="-680" y="1140" as="targetPoint" />
          </mxGeometry>
        </mxCell>
        <mxCell id="sdRk0HJzaNoqGaPp4npa-30" value="" style="endArrow=none;html=1;rounded=0;entryX=0.75;entryY=0;entryDx=0;entryDy=0;" parent="1" edge="1">
          <mxGeometry width="50" height="50" relative="1" as="geometry">
            <mxPoint x="-680" y="1140" as="sourcePoint" />
            <mxPoint x="-645" y="1140" as="targetPoint" />
          </mxGeometry>
        </mxCell>
        <mxCell id="sdRk0HJzaNoqGaPp4npa-31" value="" style="endArrow=none;html=1;rounded=0;" parent="1" edge="1">
          <mxGeometry width="50" height="50" relative="1" as="geometry">
            <mxPoint x="-320" y="1080" as="sourcePoint" />
            <mxPoint x="-320" y="1160" as="targetPoint" />
          </mxGeometry>
        </mxCell>
        <mxCell id="sdRk0HJzaNoqGaPp4npa-32" style="edgeStyle=orthogonalEdgeStyle;rounded=0;orthogonalLoop=1;jettySize=auto;html=1;exitX=0.5;exitY=1;exitDx=0;exitDy=0;entryX=0;entryY=0.5;entryDx=0;entryDy=0;entryPerimeter=0;startArrow=none;startFill=0;endArrow=none;endFill=0;" parent="1" edge="1">
          <mxGeometry relative="1" as="geometry">
            <mxPoint x="-720" y="1180" as="sourcePoint" />
            <mxPoint x="-645" y="1180" as="targetPoint" />
          </mxGeometry>
        </mxCell>
        <mxCell id="sdRk0HJzaNoqGaPp4npa-33" value="" style="endArrow=classic;html=1;rounded=0;entryX=0.5;entryY=0;entryDx=0;entryDy=0;entryPerimeter=0;" parent="1" target="sdRk0HJzaNoqGaPp4npa-23" edge="1">
          <mxGeometry width="50" height="50" relative="1" as="geometry">
            <mxPoint x="-520" y="1110" as="sourcePoint" />
            <mxPoint x="-370" y="1110" as="targetPoint" />
          </mxGeometry>
        </mxCell>
        <mxCell id="sdRk0HJzaNoqGaPp4npa-34" value="a1" style="text;strokeColor=none;fillColor=none;html=1;fontSize=14;fontStyle=1;verticalAlign=middle;align=center;" parent="1" vertex="1">
          <mxGeometry x="-545" y="1080" width="50" height="30" as="geometry" />
        </mxCell>
        <mxCell id="sdRk0HJzaNoqGaPp4npa-35" value="" style="endArrow=none;html=1;rounded=0;exitX=1.001;exitY=0.332;exitDx=0;exitDy=0;exitPerimeter=0;" parent="1" source="sdRk0HJzaNoqGaPp4npa-25" edge="1">
          <mxGeometry width="50" height="50" relative="1" as="geometry">
            <mxPoint x="-330" y="1190" as="sourcePoint" />
            <mxPoint x="-320" y="1160" as="targetPoint" />
          </mxGeometry>
        </mxCell>
        <mxCell id="sdRk0HJzaNoqGaPp4npa-36" value="" style="endArrow=none;html=1;rounded=0;exitX=1.001;exitY=0.332;exitDx=0;exitDy=0;exitPerimeter=0;" parent="1" edge="1">
          <mxGeometry width="50" height="50" relative="1" as="geometry">
            <mxPoint x="-320" y="1159.9" as="sourcePoint" />
            <mxPoint x="-220" y="1160" as="targetPoint" />
          </mxGeometry>
        </mxCell>
        <mxCell id="sdRk0HJzaNoqGaPp4npa-37" value="gO1" style="text;strokeColor=none;fillColor=none;html=1;fontSize=14;fontStyle=1;verticalAlign=middle;align=center;" parent="1" vertex="1">
          <mxGeometry x="-770" y="1165" width="50" height="30" as="geometry" />
        </mxCell>
        <mxCell id="sdRk0HJzaNoqGaPp4npa-38" value="" style="endArrow=none;html=1;rounded=0;entryX=0.5;entryY=1;entryDx=0;entryDy=0;entryPerimeter=0;" parent="1" target="sdRk0HJzaNoqGaPp4npa-1" edge="1">
          <mxGeometry width="50" height="50" relative="1" as="geometry">
            <mxPoint x="-220" y="1160" as="sourcePoint" />
            <mxPoint x="-210" y="1170" as="targetPoint" />
          </mxGeometry>
        </mxCell>
        <mxCell id="sdRk0HJzaNoqGaPp4npa-39" value="" style="endArrow=none;html=1;rounded=0;exitX=1.001;exitY=0.332;exitDx=0;exitDy=0;exitPerimeter=0;entryX=0;entryY=0.5;entryDx=0;entryDy=0;entryPerimeter=0;" parent="1" edge="1" target="sdRk0HJzaNoqGaPp4npa-40">
          <mxGeometry width="50" height="50" relative="1" as="geometry">
            <mxPoint x="-200" y="959.9399999999999" as="sourcePoint" />
            <mxPoint x="-120" y="960.04" as="targetPoint" />
          </mxGeometry>
        </mxCell>
        <mxCell id="sdRk0HJzaNoqGaPp4npa-40" value="" style="verticalLabelPosition=bottom;verticalAlign=top;html=1;shape=mxgraph.flowchart.or;" parent="1" vertex="1">
          <mxGeometry x="-60" y="940" width="40" height="40" as="geometry" />
        </mxCell>
        <mxCell id="npl0PaE0Bcr5caFlLWSZ-1" value="" style="verticalLabelPosition=bottom;verticalAlign=top;html=1;shape=mxgraph.flowchart.summing_function;" vertex="1" parent="1">
          <mxGeometry x="-690" y="-1060" width="40" height="40" as="geometry" />
        </mxCell>
        <mxCell id="npl0PaE0Bcr5caFlLWSZ-2" value="" style="verticalLabelPosition=bottom;verticalAlign=top;html=1;shape=mxgraph.flowchart.or;" vertex="1" parent="1">
          <mxGeometry x="-580" y="-1060" width="40" height="40" as="geometry" />
        </mxCell>
        <mxCell id="npl0PaE0Bcr5caFlLWSZ-4" value="" style="rounded=0;whiteSpace=wrap;html=1;" vertex="1" parent="1">
          <mxGeometry x="-480" y="-1080" width="80" height="120" as="geometry" />
        </mxCell>
        <mxCell id="npl0PaE0Bcr5caFlLWSZ-5" style="edgeStyle=orthogonalEdgeStyle;rounded=0;orthogonalLoop=1;jettySize=auto;html=1;exitX=1;exitY=0.5;exitDx=0;exitDy=0;exitPerimeter=0;entryX=-0.01;entryY=0.335;entryDx=0;entryDy=0;entryPerimeter=0;endArrow=none;endFill=0;" edge="1" parent="1" source="npl0PaE0Bcr5caFlLWSZ-2" target="npl0PaE0Bcr5caFlLWSZ-4">
          <mxGeometry relative="1" as="geometry" />
        </mxCell>
        <mxCell id="npl0PaE0Bcr5caFlLWSZ-6" style="edgeStyle=orthogonalEdgeStyle;rounded=0;orthogonalLoop=1;jettySize=auto;html=1;exitX=0.5;exitY=1;exitDx=0;exitDy=0;entryX=0;entryY=0.5;entryDx=0;entryDy=0;entryPerimeter=0;startArrow=none;startFill=0;endArrow=none;endFill=0;" edge="1" parent="1" target="npl0PaE0Bcr5caFlLWSZ-2">
          <mxGeometry relative="1" as="geometry">
            <mxPoint x="-655" y="-1040.0000000000002" as="sourcePoint" />
          </mxGeometry>
        </mxCell>
        <mxCell id="npl0PaE0Bcr5caFlLWSZ-7" value="" style="endArrow=none;html=1;rounded=0;" edge="1" parent="1">
          <mxGeometry width="50" height="50" relative="1" as="geometry">
            <mxPoint x="-670" y="-1120" as="sourcePoint" />
            <mxPoint x="-360" y="-1120" as="targetPoint" />
          </mxGeometry>
        </mxCell>
        <mxCell id="npl0PaE0Bcr5caFlLWSZ-10" value="" style="endArrow=none;html=1;rounded=0;" edge="1" parent="1">
          <mxGeometry width="50" height="50" relative="1" as="geometry">
            <mxPoint x="-670" y="-1120" as="sourcePoint" />
            <mxPoint x="-670.42" y="-1060" as="targetPoint" />
          </mxGeometry>
        </mxCell>
        <mxCell id="npl0PaE0Bcr5caFlLWSZ-12" value="" style="endArrow=classic;html=1;rounded=0;entryX=0.5;entryY=0;entryDx=0;entryDy=0;entryPerimeter=0;" edge="1" parent="1" target="npl0PaE0Bcr5caFlLWSZ-2">
          <mxGeometry width="50" height="50" relative="1" as="geometry">
            <mxPoint x="-560" y="-1090" as="sourcePoint" />
            <mxPoint x="-410" y="-1090" as="targetPoint" />
          </mxGeometry>
        </mxCell>
        <mxCell id="npl0PaE0Bcr5caFlLWSZ-13" value="a0" style="text;strokeColor=none;fillColor=none;html=1;fontSize=14;fontStyle=1;verticalAlign=middle;align=center;" vertex="1" parent="1">
          <mxGeometry x="-585" y="-1120" width="50" height="30" as="geometry" />
        </mxCell>
        <mxCell id="npl0PaE0Bcr5caFlLWSZ-14" value="" style="endArrow=none;html=1;rounded=0;exitX=1.001;exitY=0.332;exitDx=0;exitDy=0;exitPerimeter=0;" edge="1" parent="1" source="npl0PaE0Bcr5caFlLWSZ-4">
          <mxGeometry width="50" height="50" relative="1" as="geometry">
            <mxPoint x="-370" y="-1010" as="sourcePoint" />
            <mxPoint x="-360" y="-1040" as="targetPoint" />
          </mxGeometry>
        </mxCell>
        <mxCell id="npl0PaE0Bcr5caFlLWSZ-15" value="" style="endArrow=none;html=1;rounded=0;exitX=1.001;exitY=0.332;exitDx=0;exitDy=0;exitPerimeter=0;" edge="1" parent="1">
          <mxGeometry width="50" height="50" relative="1" as="geometry">
            <mxPoint x="-360" y="-1040.1" as="sourcePoint" />
            <mxPoint x="-360" y="-1120" as="targetPoint" />
          </mxGeometry>
        </mxCell>
        <mxCell id="npl0PaE0Bcr5caFlLWSZ-16" value="In" style="text;strokeColor=none;fillColor=none;html=1;fontSize=14;fontStyle=1;verticalAlign=middle;align=center;" vertex="1" parent="1">
          <mxGeometry x="-800" y="-1055" width="50" height="30" as="geometry" />
        </mxCell>
        <mxCell id="npl0PaE0Bcr5caFlLWSZ-33" value="" style="endArrow=none;html=1;rounded=0;exitX=1.001;exitY=0.332;exitDx=0;exitDy=0;exitPerimeter=0;" edge="1" parent="1">
          <mxGeometry width="50" height="50" relative="1" as="geometry">
            <mxPoint x="-360" y="-1040.24" as="sourcePoint" />
            <mxPoint x="-280" y="-1040.14" as="targetPoint" />
          </mxGeometry>
        </mxCell>
        <mxCell id="npl0PaE0Bcr5caFlLWSZ-36" value="" style="endArrow=none;html=1;rounded=0;entryX=0;entryY=0.5;entryDx=0;entryDy=0;entryPerimeter=0;" edge="1" parent="1" target="npl0PaE0Bcr5caFlLWSZ-1">
          <mxGeometry width="50" height="50" relative="1" as="geometry">
            <mxPoint x="-740" y="-1040" as="sourcePoint" />
            <mxPoint x="-710" y="-1030" as="targetPoint" />
          </mxGeometry>
        </mxCell>
        <mxCell id="npl0PaE0Bcr5caFlLWSZ-37" value="" style="verticalLabelPosition=bottom;verticalAlign=top;html=1;shape=mxgraph.flowchart.summing_function;" vertex="1" parent="1">
          <mxGeometry x="-690" y="-880" width="40" height="40" as="geometry" />
        </mxCell>
        <mxCell id="npl0PaE0Bcr5caFlLWSZ-38" value="" style="verticalLabelPosition=bottom;verticalAlign=top;html=1;shape=mxgraph.flowchart.or;" vertex="1" parent="1">
          <mxGeometry x="-580" y="-880" width="40" height="40" as="geometry" />
        </mxCell>
        <mxCell id="npl0PaE0Bcr5caFlLWSZ-39" value="" style="rounded=0;whiteSpace=wrap;html=1;" vertex="1" parent="1">
          <mxGeometry x="-480" y="-900" width="80" height="120" as="geometry" />
        </mxCell>
        <mxCell id="npl0PaE0Bcr5caFlLWSZ-40" style="edgeStyle=orthogonalEdgeStyle;rounded=0;orthogonalLoop=1;jettySize=auto;html=1;exitX=1;exitY=0.5;exitDx=0;exitDy=0;exitPerimeter=0;entryX=-0.01;entryY=0.335;entryDx=0;entryDy=0;entryPerimeter=0;endArrow=none;endFill=0;" edge="1" parent="1" source="npl0PaE0Bcr5caFlLWSZ-38" target="npl0PaE0Bcr5caFlLWSZ-39">
          <mxGeometry relative="1" as="geometry" />
        </mxCell>
        <mxCell id="npl0PaE0Bcr5caFlLWSZ-41" style="edgeStyle=orthogonalEdgeStyle;rounded=0;orthogonalLoop=1;jettySize=auto;html=1;exitX=0.5;exitY=1;exitDx=0;exitDy=0;entryX=0;entryY=0.5;entryDx=0;entryDy=0;entryPerimeter=0;startArrow=none;startFill=0;endArrow=none;endFill=0;" edge="1" parent="1" target="npl0PaE0Bcr5caFlLWSZ-38">
          <mxGeometry relative="1" as="geometry">
            <mxPoint x="-655" y="-860.0000000000002" as="sourcePoint" />
          </mxGeometry>
        </mxCell>
        <mxCell id="npl0PaE0Bcr5caFlLWSZ-42" value="" style="endArrow=none;html=1;rounded=0;" edge="1" parent="1">
          <mxGeometry width="50" height="50" relative="1" as="geometry">
            <mxPoint x="-670" y="-940" as="sourcePoint" />
            <mxPoint x="-360" y="-940" as="targetPoint" />
          </mxGeometry>
        </mxCell>
        <mxCell id="npl0PaE0Bcr5caFlLWSZ-43" value="" style="endArrow=none;html=1;rounded=0;" edge="1" parent="1">
          <mxGeometry width="50" height="50" relative="1" as="geometry">
            <mxPoint x="-670" y="-940" as="sourcePoint" />
            <mxPoint x="-670.42" y="-880" as="targetPoint" />
          </mxGeometry>
        </mxCell>
        <mxCell id="npl0PaE0Bcr5caFlLWSZ-44" value="" style="endArrow=classic;html=1;rounded=0;entryX=0.5;entryY=0;entryDx=0;entryDy=0;entryPerimeter=0;" edge="1" parent="1" target="npl0PaE0Bcr5caFlLWSZ-38">
          <mxGeometry width="50" height="50" relative="1" as="geometry">
            <mxPoint x="-560" y="-910" as="sourcePoint" />
            <mxPoint x="-410" y="-910" as="targetPoint" />
          </mxGeometry>
        </mxCell>
        <mxCell id="npl0PaE0Bcr5caFlLWSZ-45" value="a1" style="text;strokeColor=none;fillColor=none;html=1;fontSize=14;fontStyle=1;verticalAlign=middle;align=center;" vertex="1" parent="1">
          <mxGeometry x="-585" y="-940" width="50" height="30" as="geometry" />
        </mxCell>
        <mxCell id="npl0PaE0Bcr5caFlLWSZ-46" value="" style="endArrow=none;html=1;rounded=0;exitX=1.001;exitY=0.332;exitDx=0;exitDy=0;exitPerimeter=0;" edge="1" parent="1" source="npl0PaE0Bcr5caFlLWSZ-39">
          <mxGeometry width="50" height="50" relative="1" as="geometry">
            <mxPoint x="-370" y="-830" as="sourcePoint" />
            <mxPoint x="-360" y="-860" as="targetPoint" />
          </mxGeometry>
        </mxCell>
        <mxCell id="npl0PaE0Bcr5caFlLWSZ-47" value="" style="endArrow=none;html=1;rounded=0;exitX=1.001;exitY=0.332;exitDx=0;exitDy=0;exitPerimeter=0;" edge="1" parent="1">
          <mxGeometry width="50" height="50" relative="1" as="geometry">
            <mxPoint x="-360" y="-860.1" as="sourcePoint" />
            <mxPoint x="-360" y="-940" as="targetPoint" />
          </mxGeometry>
        </mxCell>
        <mxCell id="npl0PaE0Bcr5caFlLWSZ-48" value="" style="endArrow=none;html=1;rounded=0;exitX=1.001;exitY=0.332;exitDx=0;exitDy=0;exitPerimeter=0;" edge="1" parent="1">
          <mxGeometry width="50" height="50" relative="1" as="geometry">
            <mxPoint x="-360" y="-860.24" as="sourcePoint" />
            <mxPoint x="-280" y="-860.1400000000001" as="targetPoint" />
          </mxGeometry>
        </mxCell>
        <mxCell id="npl0PaE0Bcr5caFlLWSZ-49" value="" style="endArrow=none;html=1;rounded=0;entryX=0;entryY=0.5;entryDx=0;entryDy=0;entryPerimeter=0;" edge="1" parent="1" target="npl0PaE0Bcr5caFlLWSZ-37">
          <mxGeometry width="50" height="50" relative="1" as="geometry">
            <mxPoint x="-720" y="-860" as="sourcePoint" />
            <mxPoint x="-710" y="-850" as="targetPoint" />
          </mxGeometry>
        </mxCell>
        <mxCell id="npl0PaE0Bcr5caFlLWSZ-50" value="" style="endArrow=none;html=1;rounded=0;" edge="1" parent="1">
          <mxGeometry width="50" height="50" relative="1" as="geometry">
            <mxPoint x="-720" y="-860" as="sourcePoint" />
            <mxPoint x="-720" y="-1040" as="targetPoint" />
          </mxGeometry>
        </mxCell>
        <mxCell id="npl0PaE0Bcr5caFlLWSZ-51" value="" style="verticalLabelPosition=bottom;verticalAlign=top;html=1;shape=mxgraph.flowchart.summing_function;" vertex="1" parent="1">
          <mxGeometry x="-690" y="-680" width="40" height="40" as="geometry" />
        </mxCell>
        <mxCell id="npl0PaE0Bcr5caFlLWSZ-52" value="" style="verticalLabelPosition=bottom;verticalAlign=top;html=1;shape=mxgraph.flowchart.or;" vertex="1" parent="1">
          <mxGeometry x="-580" y="-680" width="40" height="40" as="geometry" />
        </mxCell>
        <mxCell id="npl0PaE0Bcr5caFlLWSZ-53" value="" style="rounded=0;whiteSpace=wrap;html=1;" vertex="1" parent="1">
          <mxGeometry x="-480" y="-700" width="80" height="120" as="geometry" />
        </mxCell>
        <mxCell id="npl0PaE0Bcr5caFlLWSZ-54" style="edgeStyle=orthogonalEdgeStyle;rounded=0;orthogonalLoop=1;jettySize=auto;html=1;exitX=1;exitY=0.5;exitDx=0;exitDy=0;exitPerimeter=0;entryX=-0.01;entryY=0.335;entryDx=0;entryDy=0;entryPerimeter=0;endArrow=none;endFill=0;" edge="1" parent="1" source="npl0PaE0Bcr5caFlLWSZ-52" target="npl0PaE0Bcr5caFlLWSZ-53">
          <mxGeometry relative="1" as="geometry" />
        </mxCell>
        <mxCell id="npl0PaE0Bcr5caFlLWSZ-55" style="edgeStyle=orthogonalEdgeStyle;rounded=0;orthogonalLoop=1;jettySize=auto;html=1;exitX=0.5;exitY=1;exitDx=0;exitDy=0;entryX=0;entryY=0.5;entryDx=0;entryDy=0;entryPerimeter=0;startArrow=none;startFill=0;endArrow=none;endFill=0;" edge="1" parent="1" target="npl0PaE0Bcr5caFlLWSZ-52">
          <mxGeometry relative="1" as="geometry">
            <mxPoint x="-655" y="-660.0000000000002" as="sourcePoint" />
          </mxGeometry>
        </mxCell>
        <mxCell id="npl0PaE0Bcr5caFlLWSZ-56" value="" style="endArrow=none;html=1;rounded=0;" edge="1" parent="1">
          <mxGeometry width="50" height="50" relative="1" as="geometry">
            <mxPoint x="-670" y="-740" as="sourcePoint" />
            <mxPoint x="-360" y="-740" as="targetPoint" />
          </mxGeometry>
        </mxCell>
        <mxCell id="npl0PaE0Bcr5caFlLWSZ-57" value="" style="endArrow=none;html=1;rounded=0;" edge="1" parent="1">
          <mxGeometry width="50" height="50" relative="1" as="geometry">
            <mxPoint x="-670" y="-740" as="sourcePoint" />
            <mxPoint x="-670.42" y="-680" as="targetPoint" />
          </mxGeometry>
        </mxCell>
        <mxCell id="npl0PaE0Bcr5caFlLWSZ-58" value="" style="endArrow=classic;html=1;rounded=0;entryX=0.5;entryY=0;entryDx=0;entryDy=0;entryPerimeter=0;" edge="1" parent="1" target="npl0PaE0Bcr5caFlLWSZ-52">
          <mxGeometry width="50" height="50" relative="1" as="geometry">
            <mxPoint x="-560" y="-710" as="sourcePoint" />
            <mxPoint x="-410" y="-710" as="targetPoint" />
          </mxGeometry>
        </mxCell>
        <mxCell id="npl0PaE0Bcr5caFlLWSZ-59" value="a2" style="text;strokeColor=none;fillColor=none;html=1;fontSize=14;fontStyle=1;verticalAlign=middle;align=center;" vertex="1" parent="1">
          <mxGeometry x="-585" y="-740" width="50" height="30" as="geometry" />
        </mxCell>
        <mxCell id="npl0PaE0Bcr5caFlLWSZ-60" value="" style="endArrow=none;html=1;rounded=0;exitX=1.001;exitY=0.332;exitDx=0;exitDy=0;exitPerimeter=0;" edge="1" parent="1" source="npl0PaE0Bcr5caFlLWSZ-53">
          <mxGeometry width="50" height="50" relative="1" as="geometry">
            <mxPoint x="-370" y="-630" as="sourcePoint" />
            <mxPoint x="-360" y="-660" as="targetPoint" />
          </mxGeometry>
        </mxCell>
        <mxCell id="npl0PaE0Bcr5caFlLWSZ-61" value="" style="endArrow=none;html=1;rounded=0;exitX=1.001;exitY=0.332;exitDx=0;exitDy=0;exitPerimeter=0;" edge="1" parent="1">
          <mxGeometry width="50" height="50" relative="1" as="geometry">
            <mxPoint x="-360" y="-660.1" as="sourcePoint" />
            <mxPoint x="-360" y="-740" as="targetPoint" />
          </mxGeometry>
        </mxCell>
        <mxCell id="npl0PaE0Bcr5caFlLWSZ-62" value="" style="endArrow=none;html=1;rounded=0;exitX=1.001;exitY=0.332;exitDx=0;exitDy=0;exitPerimeter=0;" edge="1" parent="1">
          <mxGeometry width="50" height="50" relative="1" as="geometry">
            <mxPoint x="-360" y="-660.24" as="sourcePoint" />
            <mxPoint x="-280" y="-660.1400000000001" as="targetPoint" />
          </mxGeometry>
        </mxCell>
        <mxCell id="npl0PaE0Bcr5caFlLWSZ-63" value="" style="endArrow=none;html=1;rounded=0;entryX=0;entryY=0.5;entryDx=0;entryDy=0;entryPerimeter=0;" edge="1" parent="1" target="npl0PaE0Bcr5caFlLWSZ-51">
          <mxGeometry width="50" height="50" relative="1" as="geometry">
            <mxPoint x="-720" y="-660" as="sourcePoint" />
            <mxPoint x="-710" y="-650" as="targetPoint" />
          </mxGeometry>
        </mxCell>
        <mxCell id="npl0PaE0Bcr5caFlLWSZ-64" value="" style="verticalLabelPosition=bottom;verticalAlign=top;html=1;shape=mxgraph.flowchart.summing_function;" vertex="1" parent="1">
          <mxGeometry x="-690" y="-500" width="40" height="40" as="geometry" />
        </mxCell>
        <mxCell id="npl0PaE0Bcr5caFlLWSZ-65" value="" style="verticalLabelPosition=bottom;verticalAlign=top;html=1;shape=mxgraph.flowchart.or;" vertex="1" parent="1">
          <mxGeometry x="-580" y="-500" width="40" height="40" as="geometry" />
        </mxCell>
        <mxCell id="npl0PaE0Bcr5caFlLWSZ-66" value="" style="rounded=0;whiteSpace=wrap;html=1;" vertex="1" parent="1">
          <mxGeometry x="-480" y="-520" width="80" height="120" as="geometry" />
        </mxCell>
        <mxCell id="npl0PaE0Bcr5caFlLWSZ-67" style="edgeStyle=orthogonalEdgeStyle;rounded=0;orthogonalLoop=1;jettySize=auto;html=1;exitX=1;exitY=0.5;exitDx=0;exitDy=0;exitPerimeter=0;entryX=-0.01;entryY=0.335;entryDx=0;entryDy=0;entryPerimeter=0;endArrow=none;endFill=0;" edge="1" parent="1" source="npl0PaE0Bcr5caFlLWSZ-65" target="npl0PaE0Bcr5caFlLWSZ-66">
          <mxGeometry relative="1" as="geometry" />
        </mxCell>
        <mxCell id="npl0PaE0Bcr5caFlLWSZ-68" style="edgeStyle=orthogonalEdgeStyle;rounded=0;orthogonalLoop=1;jettySize=auto;html=1;exitX=0.5;exitY=1;exitDx=0;exitDy=0;entryX=0;entryY=0.5;entryDx=0;entryDy=0;entryPerimeter=0;startArrow=none;startFill=0;endArrow=none;endFill=0;" edge="1" parent="1" target="npl0PaE0Bcr5caFlLWSZ-65">
          <mxGeometry relative="1" as="geometry">
            <mxPoint x="-655" y="-480.0000000000002" as="sourcePoint" />
          </mxGeometry>
        </mxCell>
        <mxCell id="npl0PaE0Bcr5caFlLWSZ-69" value="" style="endArrow=none;html=1;rounded=0;" edge="1" parent="1">
          <mxGeometry width="50" height="50" relative="1" as="geometry">
            <mxPoint x="-670" y="-560" as="sourcePoint" />
            <mxPoint x="-360" y="-560" as="targetPoint" />
          </mxGeometry>
        </mxCell>
        <mxCell id="npl0PaE0Bcr5caFlLWSZ-70" value="" style="endArrow=none;html=1;rounded=0;" edge="1" parent="1">
          <mxGeometry width="50" height="50" relative="1" as="geometry">
            <mxPoint x="-670" y="-560" as="sourcePoint" />
            <mxPoint x="-670.42" y="-500" as="targetPoint" />
          </mxGeometry>
        </mxCell>
        <mxCell id="npl0PaE0Bcr5caFlLWSZ-71" value="" style="endArrow=classic;html=1;rounded=0;entryX=0.5;entryY=0;entryDx=0;entryDy=0;entryPerimeter=0;" edge="1" parent="1" target="npl0PaE0Bcr5caFlLWSZ-65">
          <mxGeometry width="50" height="50" relative="1" as="geometry">
            <mxPoint x="-560" y="-530" as="sourcePoint" />
            <mxPoint x="-410" y="-530" as="targetPoint" />
          </mxGeometry>
        </mxCell>
        <mxCell id="npl0PaE0Bcr5caFlLWSZ-72" value="a3" style="text;strokeColor=none;fillColor=none;html=1;fontSize=14;fontStyle=1;verticalAlign=middle;align=center;" vertex="1" parent="1">
          <mxGeometry x="-585" y="-560" width="50" height="30" as="geometry" />
        </mxCell>
        <mxCell id="npl0PaE0Bcr5caFlLWSZ-73" value="" style="endArrow=none;html=1;rounded=0;exitX=1.001;exitY=0.332;exitDx=0;exitDy=0;exitPerimeter=0;" edge="1" parent="1" source="npl0PaE0Bcr5caFlLWSZ-66">
          <mxGeometry width="50" height="50" relative="1" as="geometry">
            <mxPoint x="-370" y="-450" as="sourcePoint" />
            <mxPoint x="-360" y="-480" as="targetPoint" />
          </mxGeometry>
        </mxCell>
        <mxCell id="npl0PaE0Bcr5caFlLWSZ-74" value="" style="endArrow=none;html=1;rounded=0;exitX=1.001;exitY=0.332;exitDx=0;exitDy=0;exitPerimeter=0;" edge="1" parent="1">
          <mxGeometry width="50" height="50" relative="1" as="geometry">
            <mxPoint x="-360" y="-480.1" as="sourcePoint" />
            <mxPoint x="-360" y="-560" as="targetPoint" />
          </mxGeometry>
        </mxCell>
        <mxCell id="npl0PaE0Bcr5caFlLWSZ-75" value="" style="endArrow=none;html=1;rounded=0;exitX=1.001;exitY=0.332;exitDx=0;exitDy=0;exitPerimeter=0;" edge="1" parent="1">
          <mxGeometry width="50" height="50" relative="1" as="geometry">
            <mxPoint x="-360" y="-480.24000000000007" as="sourcePoint" />
            <mxPoint x="-280" y="-480.14000000000004" as="targetPoint" />
          </mxGeometry>
        </mxCell>
        <mxCell id="npl0PaE0Bcr5caFlLWSZ-76" value="" style="endArrow=none;html=1;rounded=0;entryX=0;entryY=0.5;entryDx=0;entryDy=0;entryPerimeter=0;" edge="1" parent="1" target="npl0PaE0Bcr5caFlLWSZ-64">
          <mxGeometry width="50" height="50" relative="1" as="geometry">
            <mxPoint x="-720" y="-480" as="sourcePoint" />
            <mxPoint x="-710" y="-470" as="targetPoint" />
          </mxGeometry>
        </mxCell>
        <mxCell id="npl0PaE0Bcr5caFlLWSZ-77" value="" style="endArrow=none;html=1;rounded=0;" edge="1" parent="1">
          <mxGeometry width="50" height="50" relative="1" as="geometry">
            <mxPoint x="-720" y="-480" as="sourcePoint" />
            <mxPoint x="-720" y="-860" as="targetPoint" />
          </mxGeometry>
        </mxCell>
        <mxCell id="npl0PaE0Bcr5caFlLWSZ-78" value="s0" style="text;strokeColor=none;fillColor=none;html=1;fontSize=14;fontStyle=1;verticalAlign=middle;align=center;" vertex="1" parent="1">
          <mxGeometry x="-330" y="-1070" width="50" height="30" as="geometry" />
        </mxCell>
        <mxCell id="npl0PaE0Bcr5caFlLWSZ-79" value="s1" style="text;strokeColor=none;fillColor=none;html=1;fontSize=14;fontStyle=1;verticalAlign=middle;align=center;" vertex="1" parent="1">
          <mxGeometry x="-330" y="-890" width="50" height="30" as="geometry" />
        </mxCell>
        <mxCell id="npl0PaE0Bcr5caFlLWSZ-80" value="s2" style="text;strokeColor=none;fillColor=none;html=1;fontSize=14;fontStyle=1;verticalAlign=middle;align=center;" vertex="1" parent="1">
          <mxGeometry x="-330" y="-690" width="50" height="30" as="geometry" />
        </mxCell>
        <mxCell id="npl0PaE0Bcr5caFlLWSZ-81" value="s3" style="text;strokeColor=none;fillColor=none;html=1;fontSize=14;fontStyle=1;verticalAlign=middle;align=center;" vertex="1" parent="1">
          <mxGeometry x="-330" y="-510" width="50" height="30" as="geometry" />
        </mxCell>
        <mxCell id="npl0PaE0Bcr5caFlLWSZ-83" value="" style="verticalLabelPosition=bottom;verticalAlign=top;html=1;shape=mxgraph.flowchart.or;" vertex="1" parent="1">
          <mxGeometry x="-540" y="300" width="40" height="40" as="geometry" />
        </mxCell>
        <mxCell id="npl0PaE0Bcr5caFlLWSZ-84" value="" style="verticalLabelPosition=middle;verticalAlign=middle;html=1;shape=trapezoid;perimeter=trapezoidPerimeter;whiteSpace=wrap;size=0.23;arcSize=10;flipV=1;labelPosition=center;align=center;rotation=-90;" vertex="1" parent="1">
          <mxGeometry x="-680" y="305" width="100" height="30" as="geometry" />
        </mxCell>
        <mxCell id="npl0PaE0Bcr5caFlLWSZ-85" value="" style="rounded=0;whiteSpace=wrap;html=1;" vertex="1" parent="1">
          <mxGeometry x="-440" y="280" width="80" height="120" as="geometry" />
        </mxCell>
        <mxCell id="npl0PaE0Bcr5caFlLWSZ-86" style="edgeStyle=orthogonalEdgeStyle;rounded=0;orthogonalLoop=1;jettySize=auto;html=1;exitX=1;exitY=0.5;exitDx=0;exitDy=0;exitPerimeter=0;entryX=-0.01;entryY=0.335;entryDx=0;entryDy=0;entryPerimeter=0;endArrow=none;endFill=0;" edge="1" parent="1" source="npl0PaE0Bcr5caFlLWSZ-83" target="npl0PaE0Bcr5caFlLWSZ-85">
          <mxGeometry relative="1" as="geometry" />
        </mxCell>
        <mxCell id="npl0PaE0Bcr5caFlLWSZ-87" style="edgeStyle=orthogonalEdgeStyle;rounded=0;orthogonalLoop=1;jettySize=auto;html=1;exitX=0.5;exitY=1;exitDx=0;exitDy=0;entryX=0;entryY=0.5;entryDx=0;entryDy=0;entryPerimeter=0;startArrow=none;startFill=0;endArrow=none;endFill=0;" edge="1" parent="1" source="npl0PaE0Bcr5caFlLWSZ-84" target="npl0PaE0Bcr5caFlLWSZ-83">
          <mxGeometry relative="1" as="geometry" />
        </mxCell>
        <mxCell id="npl0PaE0Bcr5caFlLWSZ-88" value="" style="endArrow=none;html=1;rounded=0;" edge="1" parent="1">
          <mxGeometry width="50" height="50" relative="1" as="geometry">
            <mxPoint x="-680" y="240" as="sourcePoint" />
            <mxPoint x="-320" y="240" as="targetPoint" />
          </mxGeometry>
        </mxCell>
        <mxCell id="npl0PaE0Bcr5caFlLWSZ-89" value="" style="endArrow=none;html=1;rounded=0;" edge="1" parent="1">
          <mxGeometry width="50" height="50" relative="1" as="geometry">
            <mxPoint x="-680" y="240" as="sourcePoint" />
            <mxPoint x="-680" y="300" as="targetPoint" />
          </mxGeometry>
        </mxCell>
        <mxCell id="npl0PaE0Bcr5caFlLWSZ-90" value="" style="endArrow=none;html=1;rounded=0;entryX=0.75;entryY=0;entryDx=0;entryDy=0;" edge="1" parent="1">
          <mxGeometry width="50" height="50" relative="1" as="geometry">
            <mxPoint x="-680" y="300" as="sourcePoint" />
            <mxPoint x="-645" y="300" as="targetPoint" />
          </mxGeometry>
        </mxCell>
        <mxCell id="npl0PaE0Bcr5caFlLWSZ-91" value="" style="endArrow=none;html=1;rounded=0;" edge="1" parent="1">
          <mxGeometry width="50" height="50" relative="1" as="geometry">
            <mxPoint x="-320" y="240" as="sourcePoint" />
            <mxPoint x="-320" y="320" as="targetPoint" />
          </mxGeometry>
        </mxCell>
        <mxCell id="npl0PaE0Bcr5caFlLWSZ-92" style="edgeStyle=orthogonalEdgeStyle;rounded=0;orthogonalLoop=1;jettySize=auto;html=1;exitX=0.5;exitY=1;exitDx=0;exitDy=0;entryX=0;entryY=0.5;entryDx=0;entryDy=0;entryPerimeter=0;startArrow=none;startFill=0;endArrow=none;endFill=0;" edge="1" parent="1">
          <mxGeometry relative="1" as="geometry">
            <mxPoint x="-720" y="340" as="sourcePoint" />
            <mxPoint x="-645" y="340" as="targetPoint" />
          </mxGeometry>
        </mxCell>
        <mxCell id="npl0PaE0Bcr5caFlLWSZ-93" value="" style="endArrow=classic;html=1;rounded=0;entryX=0.5;entryY=0;entryDx=0;entryDy=0;entryPerimeter=0;" edge="1" parent="1" target="npl0PaE0Bcr5caFlLWSZ-83">
          <mxGeometry width="50" height="50" relative="1" as="geometry">
            <mxPoint x="-520" y="270" as="sourcePoint" />
            <mxPoint x="-370" y="270" as="targetPoint" />
          </mxGeometry>
        </mxCell>
        <mxCell id="npl0PaE0Bcr5caFlLWSZ-94" value="a0" style="text;strokeColor=none;fillColor=none;html=1;fontSize=14;fontStyle=1;verticalAlign=middle;align=center;" vertex="1" parent="1">
          <mxGeometry x="-545" y="240" width="50" height="30" as="geometry" />
        </mxCell>
        <mxCell id="npl0PaE0Bcr5caFlLWSZ-95" value="" style="endArrow=none;html=1;rounded=0;exitX=1.001;exitY=0.332;exitDx=0;exitDy=0;exitPerimeter=0;" edge="1" parent="1" source="npl0PaE0Bcr5caFlLWSZ-85">
          <mxGeometry width="50" height="50" relative="1" as="geometry">
            <mxPoint x="-330" y="350" as="sourcePoint" />
            <mxPoint x="-320" y="320" as="targetPoint" />
          </mxGeometry>
        </mxCell>
        <mxCell id="npl0PaE0Bcr5caFlLWSZ-96" value="" style="endArrow=none;html=1;rounded=0;exitX=1.001;exitY=0.332;exitDx=0;exitDy=0;exitPerimeter=0;" edge="1" parent="1">
          <mxGeometry width="50" height="50" relative="1" as="geometry">
            <mxPoint x="-320" y="319.9" as="sourcePoint" />
            <mxPoint x="-240" y="320" as="targetPoint" />
          </mxGeometry>
        </mxCell>
        <mxCell id="npl0PaE0Bcr5caFlLWSZ-97" value="gG0" style="text;strokeColor=none;fillColor=none;html=1;fontSize=14;fontStyle=1;verticalAlign=middle;align=center;" vertex="1" parent="1">
          <mxGeometry x="-770" y="325" width="50" height="30" as="geometry" />
        </mxCell>
        <mxCell id="npl0PaE0Bcr5caFlLWSZ-98" value="" style="verticalLabelPosition=bottom;verticalAlign=top;html=1;shape=mxgraph.flowchart.or;" vertex="1" parent="1">
          <mxGeometry x="-540" y="500" width="40" height="40" as="geometry" />
        </mxCell>
        <mxCell id="npl0PaE0Bcr5caFlLWSZ-99" value="" style="verticalLabelPosition=middle;verticalAlign=middle;html=1;shape=trapezoid;perimeter=trapezoidPerimeter;whiteSpace=wrap;size=0.23;arcSize=10;flipV=1;labelPosition=center;align=center;rotation=-90;" vertex="1" parent="1">
          <mxGeometry x="-680" y="505" width="100" height="30" as="geometry" />
        </mxCell>
        <mxCell id="npl0PaE0Bcr5caFlLWSZ-100" value="" style="rounded=0;whiteSpace=wrap;html=1;" vertex="1" parent="1">
          <mxGeometry x="-440" y="480" width="80" height="120" as="geometry" />
        </mxCell>
        <mxCell id="npl0PaE0Bcr5caFlLWSZ-101" style="edgeStyle=orthogonalEdgeStyle;rounded=0;orthogonalLoop=1;jettySize=auto;html=1;exitX=1;exitY=0.5;exitDx=0;exitDy=0;exitPerimeter=0;entryX=-0.01;entryY=0.335;entryDx=0;entryDy=0;entryPerimeter=0;endArrow=none;endFill=0;" edge="1" parent="1" source="npl0PaE0Bcr5caFlLWSZ-98" target="npl0PaE0Bcr5caFlLWSZ-100">
          <mxGeometry relative="1" as="geometry" />
        </mxCell>
        <mxCell id="npl0PaE0Bcr5caFlLWSZ-102" style="edgeStyle=orthogonalEdgeStyle;rounded=0;orthogonalLoop=1;jettySize=auto;html=1;exitX=0.5;exitY=1;exitDx=0;exitDy=0;entryX=0;entryY=0.5;entryDx=0;entryDy=0;entryPerimeter=0;startArrow=none;startFill=0;endArrow=none;endFill=0;" edge="1" parent="1" source="npl0PaE0Bcr5caFlLWSZ-99" target="npl0PaE0Bcr5caFlLWSZ-98">
          <mxGeometry relative="1" as="geometry" />
        </mxCell>
        <mxCell id="npl0PaE0Bcr5caFlLWSZ-103" value="" style="endArrow=none;html=1;rounded=0;" edge="1" parent="1">
          <mxGeometry width="50" height="50" relative="1" as="geometry">
            <mxPoint x="-680" y="440" as="sourcePoint" />
            <mxPoint x="-320" y="440" as="targetPoint" />
          </mxGeometry>
        </mxCell>
        <mxCell id="npl0PaE0Bcr5caFlLWSZ-104" value="" style="endArrow=none;html=1;rounded=0;" edge="1" parent="1">
          <mxGeometry width="50" height="50" relative="1" as="geometry">
            <mxPoint x="-680" y="440" as="sourcePoint" />
            <mxPoint x="-680" y="500" as="targetPoint" />
          </mxGeometry>
        </mxCell>
        <mxCell id="npl0PaE0Bcr5caFlLWSZ-105" value="" style="endArrow=none;html=1;rounded=0;entryX=0.75;entryY=0;entryDx=0;entryDy=0;" edge="1" parent="1">
          <mxGeometry width="50" height="50" relative="1" as="geometry">
            <mxPoint x="-680" y="500" as="sourcePoint" />
            <mxPoint x="-645" y="500" as="targetPoint" />
          </mxGeometry>
        </mxCell>
        <mxCell id="npl0PaE0Bcr5caFlLWSZ-106" value="" style="endArrow=none;html=1;rounded=0;" edge="1" parent="1">
          <mxGeometry width="50" height="50" relative="1" as="geometry">
            <mxPoint x="-320" y="440" as="sourcePoint" />
            <mxPoint x="-320" y="520" as="targetPoint" />
          </mxGeometry>
        </mxCell>
        <mxCell id="npl0PaE0Bcr5caFlLWSZ-107" style="edgeStyle=orthogonalEdgeStyle;rounded=0;orthogonalLoop=1;jettySize=auto;html=1;exitX=0.5;exitY=1;exitDx=0;exitDy=0;entryX=0;entryY=0.5;entryDx=0;entryDy=0;entryPerimeter=0;startArrow=none;startFill=0;endArrow=none;endFill=0;" edge="1" parent="1">
          <mxGeometry relative="1" as="geometry">
            <mxPoint x="-720" y="540" as="sourcePoint" />
            <mxPoint x="-645" y="540" as="targetPoint" />
          </mxGeometry>
        </mxCell>
        <mxCell id="npl0PaE0Bcr5caFlLWSZ-108" value="" style="endArrow=classic;html=1;rounded=0;entryX=0.5;entryY=0;entryDx=0;entryDy=0;entryPerimeter=0;" edge="1" parent="1" target="npl0PaE0Bcr5caFlLWSZ-98">
          <mxGeometry width="50" height="50" relative="1" as="geometry">
            <mxPoint x="-520" y="470" as="sourcePoint" />
            <mxPoint x="-370" y="470" as="targetPoint" />
          </mxGeometry>
        </mxCell>
        <mxCell id="npl0PaE0Bcr5caFlLWSZ-109" value="a1" style="text;strokeColor=none;fillColor=none;html=1;fontSize=14;fontStyle=1;verticalAlign=middle;align=center;" vertex="1" parent="1">
          <mxGeometry x="-545" y="440" width="50" height="30" as="geometry" />
        </mxCell>
        <mxCell id="npl0PaE0Bcr5caFlLWSZ-110" value="" style="endArrow=none;html=1;rounded=0;exitX=1.001;exitY=0.332;exitDx=0;exitDy=0;exitPerimeter=0;" edge="1" parent="1" source="npl0PaE0Bcr5caFlLWSZ-100">
          <mxGeometry width="50" height="50" relative="1" as="geometry">
            <mxPoint x="-330" y="550" as="sourcePoint" />
            <mxPoint x="-320" y="520" as="targetPoint" />
          </mxGeometry>
        </mxCell>
        <mxCell id="npl0PaE0Bcr5caFlLWSZ-111" value="" style="endArrow=none;html=1;rounded=0;exitX=1.001;exitY=0.332;exitDx=0;exitDy=0;exitPerimeter=0;" edge="1" parent="1">
          <mxGeometry width="50" height="50" relative="1" as="geometry">
            <mxPoint x="-320" y="519.9" as="sourcePoint" />
            <mxPoint x="-220" y="520" as="targetPoint" />
          </mxGeometry>
        </mxCell>
        <mxCell id="npl0PaE0Bcr5caFlLWSZ-112" value="gG1" style="text;strokeColor=none;fillColor=none;html=1;fontSize=14;fontStyle=1;verticalAlign=middle;align=center;" vertex="1" parent="1">
          <mxGeometry x="-770" y="525" width="50" height="30" as="geometry" />
        </mxCell>
        <mxCell id="npl0PaE0Bcr5caFlLWSZ-116" value="" style="verticalLabelPosition=bottom;verticalAlign=top;html=1;shape=mxgraph.flowchart.or;" vertex="1" parent="1">
          <mxGeometry x="-540" y="700" width="40" height="40" as="geometry" />
        </mxCell>
        <mxCell id="npl0PaE0Bcr5caFlLWSZ-117" value="" style="verticalLabelPosition=middle;verticalAlign=middle;html=1;shape=trapezoid;perimeter=trapezoidPerimeter;whiteSpace=wrap;size=0.23;arcSize=10;flipV=1;labelPosition=center;align=center;rotation=-90;" vertex="1" parent="1">
          <mxGeometry x="-680" y="705" width="100" height="30" as="geometry" />
        </mxCell>
        <mxCell id="npl0PaE0Bcr5caFlLWSZ-118" value="" style="rounded=0;whiteSpace=wrap;html=1;" vertex="1" parent="1">
          <mxGeometry x="-440" y="680" width="80" height="120" as="geometry" />
        </mxCell>
        <mxCell id="npl0PaE0Bcr5caFlLWSZ-119" style="edgeStyle=orthogonalEdgeStyle;rounded=0;orthogonalLoop=1;jettySize=auto;html=1;exitX=1;exitY=0.5;exitDx=0;exitDy=0;exitPerimeter=0;entryX=-0.01;entryY=0.335;entryDx=0;entryDy=0;entryPerimeter=0;endArrow=none;endFill=0;" edge="1" parent="1" source="npl0PaE0Bcr5caFlLWSZ-116" target="npl0PaE0Bcr5caFlLWSZ-118">
          <mxGeometry relative="1" as="geometry" />
        </mxCell>
        <mxCell id="npl0PaE0Bcr5caFlLWSZ-120" style="edgeStyle=orthogonalEdgeStyle;rounded=0;orthogonalLoop=1;jettySize=auto;html=1;exitX=0.5;exitY=1;exitDx=0;exitDy=0;entryX=0;entryY=0.5;entryDx=0;entryDy=0;entryPerimeter=0;startArrow=none;startFill=0;endArrow=none;endFill=0;" edge="1" parent="1" source="npl0PaE0Bcr5caFlLWSZ-117" target="npl0PaE0Bcr5caFlLWSZ-116">
          <mxGeometry relative="1" as="geometry" />
        </mxCell>
        <mxCell id="npl0PaE0Bcr5caFlLWSZ-121" value="" style="endArrow=none;html=1;rounded=0;" edge="1" parent="1">
          <mxGeometry width="50" height="50" relative="1" as="geometry">
            <mxPoint x="-680" y="640" as="sourcePoint" />
            <mxPoint x="-320" y="640" as="targetPoint" />
          </mxGeometry>
        </mxCell>
        <mxCell id="npl0PaE0Bcr5caFlLWSZ-122" value="" style="endArrow=none;html=1;rounded=0;" edge="1" parent="1">
          <mxGeometry width="50" height="50" relative="1" as="geometry">
            <mxPoint x="-680" y="640" as="sourcePoint" />
            <mxPoint x="-680" y="700" as="targetPoint" />
          </mxGeometry>
        </mxCell>
        <mxCell id="npl0PaE0Bcr5caFlLWSZ-123" value="" style="endArrow=none;html=1;rounded=0;entryX=0.75;entryY=0;entryDx=0;entryDy=0;" edge="1" parent="1">
          <mxGeometry width="50" height="50" relative="1" as="geometry">
            <mxPoint x="-680" y="700" as="sourcePoint" />
            <mxPoint x="-645" y="700" as="targetPoint" />
          </mxGeometry>
        </mxCell>
        <mxCell id="npl0PaE0Bcr5caFlLWSZ-124" value="" style="endArrow=none;html=1;rounded=0;" edge="1" parent="1">
          <mxGeometry width="50" height="50" relative="1" as="geometry">
            <mxPoint x="-320" y="640" as="sourcePoint" />
            <mxPoint x="-320" y="720" as="targetPoint" />
          </mxGeometry>
        </mxCell>
        <mxCell id="npl0PaE0Bcr5caFlLWSZ-125" style="edgeStyle=orthogonalEdgeStyle;rounded=0;orthogonalLoop=1;jettySize=auto;html=1;exitX=0.5;exitY=1;exitDx=0;exitDy=0;entryX=0;entryY=0.5;entryDx=0;entryDy=0;entryPerimeter=0;startArrow=none;startFill=0;endArrow=none;endFill=0;" edge="1" parent="1">
          <mxGeometry relative="1" as="geometry">
            <mxPoint x="-720" y="740" as="sourcePoint" />
            <mxPoint x="-645" y="740" as="targetPoint" />
          </mxGeometry>
        </mxCell>
        <mxCell id="npl0PaE0Bcr5caFlLWSZ-126" value="" style="endArrow=classic;html=1;rounded=0;entryX=0.5;entryY=0;entryDx=0;entryDy=0;entryPerimeter=0;" edge="1" parent="1" target="npl0PaE0Bcr5caFlLWSZ-116">
          <mxGeometry width="50" height="50" relative="1" as="geometry">
            <mxPoint x="-520" y="670" as="sourcePoint" />
            <mxPoint x="-370" y="670" as="targetPoint" />
          </mxGeometry>
        </mxCell>
        <mxCell id="npl0PaE0Bcr5caFlLWSZ-127" value="a1" style="text;strokeColor=none;fillColor=none;html=1;fontSize=14;fontStyle=1;verticalAlign=middle;align=center;" vertex="1" parent="1">
          <mxGeometry x="-545" y="640" width="50" height="30" as="geometry" />
        </mxCell>
        <mxCell id="npl0PaE0Bcr5caFlLWSZ-128" value="" style="endArrow=none;html=1;rounded=0;exitX=1.001;exitY=0.332;exitDx=0;exitDy=0;exitPerimeter=0;" edge="1" parent="1" source="npl0PaE0Bcr5caFlLWSZ-118">
          <mxGeometry width="50" height="50" relative="1" as="geometry">
            <mxPoint x="-330" y="750" as="sourcePoint" />
            <mxPoint x="-320" y="720" as="targetPoint" />
          </mxGeometry>
        </mxCell>
        <mxCell id="npl0PaE0Bcr5caFlLWSZ-129" value="" style="endArrow=none;html=1;rounded=0;exitX=1.001;exitY=0.332;exitDx=0;exitDy=0;exitPerimeter=0;" edge="1" parent="1">
          <mxGeometry width="50" height="50" relative="1" as="geometry">
            <mxPoint x="-320" y="719.9" as="sourcePoint" />
            <mxPoint x="-140" y="720" as="targetPoint" />
          </mxGeometry>
        </mxCell>
        <mxCell id="npl0PaE0Bcr5caFlLWSZ-130" value="gG2" style="text;strokeColor=none;fillColor=none;html=1;fontSize=14;fontStyle=1;verticalAlign=middle;align=center;" vertex="1" parent="1">
          <mxGeometry x="-770" y="725" width="50" height="30" as="geometry" />
        </mxCell>
        <mxCell id="npl0PaE0Bcr5caFlLWSZ-132" value="" style="verticalLabelPosition=bottom;verticalAlign=top;html=1;shape=mxgraph.flowchart.summing_function;" vertex="1" parent="1">
          <mxGeometry x="-240" y="300" width="40" height="40" as="geometry" />
        </mxCell>
        <mxCell id="npl0PaE0Bcr5caFlLWSZ-133" value="" style="verticalLabelPosition=bottom;verticalAlign=top;html=1;shape=mxgraph.flowchart.summing_function;" vertex="1" parent="1">
          <mxGeometry x="-160" y="300" width="40" height="40" as="geometry" />
        </mxCell>
        <mxCell id="npl0PaE0Bcr5caFlLWSZ-134" value="" style="endArrow=none;html=1;rounded=0;exitX=0.5;exitY=1;exitDx=0;exitDy=0;exitPerimeter=0;" edge="1" parent="1" source="npl0PaE0Bcr5caFlLWSZ-132">
          <mxGeometry width="50" height="50" relative="1" as="geometry">
            <mxPoint x="-220.48000000000002" y="340" as="sourcePoint" />
            <mxPoint x="-220" y="520" as="targetPoint" />
          </mxGeometry>
        </mxCell>
        <mxCell id="npl0PaE0Bcr5caFlLWSZ-135" value="" style="endArrow=none;html=1;rounded=0;exitX=0.5;exitY=1;exitDx=0;exitDy=0;exitPerimeter=0;" edge="1" parent="1">
          <mxGeometry width="50" height="50" relative="1" as="geometry">
            <mxPoint x="-140.11" y="340" as="sourcePoint" />
            <mxPoint x="-140" y="720" as="targetPoint" />
          </mxGeometry>
        </mxCell>
        <mxCell id="npl0PaE0Bcr5caFlLWSZ-136" value="" style="endArrow=none;html=1;rounded=0;exitX=1;exitY=0.5;exitDx=0;exitDy=0;exitPerimeter=0;entryX=0;entryY=0.5;entryDx=0;entryDy=0;entryPerimeter=0;" edge="1" parent="1" source="npl0PaE0Bcr5caFlLWSZ-132" target="npl0PaE0Bcr5caFlLWSZ-133">
          <mxGeometry width="50" height="50" relative="1" as="geometry">
            <mxPoint x="-310" y="329.9" as="sourcePoint" />
            <mxPoint x="-230" y="330" as="targetPoint" />
          </mxGeometry>
        </mxCell>
        <mxCell id="npl0PaE0Bcr5caFlLWSZ-137" value="" style="endArrow=none;html=1;rounded=0;" edge="1" parent="1">
          <mxGeometry width="50" height="50" relative="1" as="geometry">
            <mxPoint x="-120" y="320" as="sourcePoint" />
            <mxPoint x="-60" y="320" as="targetPoint" />
          </mxGeometry>
        </mxCell>
        <mxCell id="npl0PaE0Bcr5caFlLWSZ-138" value="" style="endArrow=none;html=1;rounded=0;" edge="1" parent="1">
          <mxGeometry width="50" height="50" relative="1" as="geometry">
            <mxPoint x="-40" y="520" as="sourcePoint" />
            <mxPoint x="-40" y="940" as="targetPoint" />
          </mxGeometry>
        </mxCell>
        <mxCell id="npl0PaE0Bcr5caFlLWSZ-139" value="" style="endArrow=none;html=1;rounded=0;" edge="1" parent="1">
          <mxGeometry width="50" height="50" relative="1" as="geometry">
            <mxPoint x="-220" y="520" as="sourcePoint" />
            <mxPoint x="-40" y="520" as="targetPoint" />
          </mxGeometry>
        </mxCell>
        <mxCell id="npl0PaE0Bcr5caFlLWSZ-140" value="1/x" style="rounded=0;whiteSpace=wrap;html=1;" vertex="1" parent="1">
          <mxGeometry x="-80" y="680" width="80" height="50" as="geometry" />
        </mxCell>
        <mxCell id="npl0PaE0Bcr5caFlLWSZ-141" value="=0" style="rounded=0;whiteSpace=wrap;html=1;" vertex="1" parent="1">
          <mxGeometry x="-60" y="295" width="80" height="50" as="geometry" />
        </mxCell>
        <mxCell id="npl0PaE0Bcr5caFlLWSZ-143" value="" style="endArrow=none;html=1;rounded=0;" edge="1" parent="1">
          <mxGeometry width="50" height="50" relative="1" as="geometry">
            <mxPoint x="20" y="319.58" as="sourcePoint" />
            <mxPoint x="80" y="319.58" as="targetPoint" />
          </mxGeometry>
        </mxCell>
        <mxCell id="npl0PaE0Bcr5caFlLWSZ-145" value="" style="endArrow=none;html=1;rounded=0;exitX=1.001;exitY=0.332;exitDx=0;exitDy=0;exitPerimeter=0;" edge="1" parent="1">
          <mxGeometry width="50" height="50" relative="1" as="geometry">
            <mxPoint x="-20" y="959.5799999999999" as="sourcePoint" />
            <mxPoint x="100" y="960" as="targetPoint" />
          </mxGeometry>
        </mxCell>
        <mxCell id="npl0PaE0Bcr5caFlLWSZ-147" value="ksi" style="text;strokeColor=none;fillColor=none;html=1;fontSize=14;fontStyle=1;verticalAlign=middle;align=center;" vertex="1" parent="1">
          <mxGeometry x="-90" y="490" width="50" height="30" as="geometry" />
        </mxCell>
        <mxCell id="npl0PaE0Bcr5caFlLWSZ-150" value="err&lt;br&gt;pos" style="text;strokeColor=none;fillColor=none;html=1;fontSize=14;fontStyle=1;verticalAlign=middle;align=center;" vertex="1" parent="1">
          <mxGeometry x="30" y="280" width="50" height="30" as="geometry" />
        </mxCell>
        <mxCell id="npl0PaE0Bcr5caFlLWSZ-151" value="err&lt;br&gt;value" style="text;strokeColor=none;fillColor=none;html=1;fontSize=14;fontStyle=1;verticalAlign=middle;align=center;" vertex="1" parent="1">
          <mxGeometry x="40" y="920" width="50" height="30" as="geometry" />
        </mxCell>
      </root>
    </mxGraphModel>
  </diagram>
</mxfile>
